<svg width="100" height="206" viewBox="0 0 100 206" fill="none" xmlns="http://www.w3.org/2000/svg">
<path fill-rule="evenodd" clip-rule="evenodd" d="M99.7 55.09V153.6L24.49 205.39L24.83 54.73C24.79 53.7 25.16 52.72 25.86 51.96C26.55 51.19 27.51 50.75 28.55 50.71C29.56 50.7 30.55 51.02 31.32 51.73C32.09 52.44 32.54 53.39 32.58 54.43L31.69 190.63L48.21 179.72L49.99 65.45L91.95 91.35V59.81L7.87 12.09L8.03999 201.34C8.13999 203.46 6.48 205.28 4.34 205.38L4.16 205.39C2.09 205.39 0.389993 203.75 0.289993 201.68L0.169998 0.559998L99.7 55.09ZM58.2 78.4L55.78 174.37L91.95 149.57V100.07L58.2 78.4Z" fill="currentColor"/>
</svg>
