<svg width="488" height="206" viewBox="0 0 488 206" fill="none" xmlns="http://www.w3.org/2000/svg">
<g clip-path="url(#clip0_5_3)">
<path fill-rule="evenodd" clip-rule="evenodd" d="M129.78 162.21V107.98H153.48C159.373 107.98 164.54 109.117 168.98 111.39C173.42 113.663 176.88 116.813 179.36 120.84C181.84 124.873 183.08 129.627 183.08 135.1C183.08 140.52 181.84 145.257 179.36 149.31C176.88 153.363 173.42 156.527 168.98 158.8C164.54 161.073 159.373 162.21 153.48 162.21H129.78ZM139.85 153.69H153.02C157.093 153.69 160.62 152.917 163.6 151.37C166.567 149.817 168.86 147.643 170.48 144.85C172.113 142.063 172.93 138.813 172.93 135.1C172.93 131.327 172.113 128.06 170.48 125.3C168.86 122.54 166.567 120.383 163.6 118.83C160.62 117.283 157.093 116.51 153.02 116.51H139.85V153.69Z" fill="black"/>
<path fill-rule="evenodd" clip-rule="evenodd" d="M193.07 162.21L217.47 107.99H227.38L251.87 162.21H241.33L235.94 149.66H239.01L236.3 141.76H232.55L222.35 118.03L212.2 141.76H207.01L204.3 149.66H208.82L203.45 162.21H193.07ZM235.95 149.66L232.55 141.76H212.2L208.82 149.66H235.95Z" fill="black"/>
<path d="M212.2 141.76H207.01L204.3 149.66H208.82L212.2 141.76Z" fill="black"/>
<path d="M235.95 149.66H239.01L236.3 141.76H232.55L235.95 149.66Z" fill="black"/>
<path d="M283.32 162.98C279.087 162.98 275.033 162.373 271.16 161.16C267.28 159.953 264.207 158.39 261.94 156.47L265.43 148.65C267.59 150.357 270.273 151.777 273.48 152.91C276.68 154.05 279.96 154.62 283.32 154.62C286.16 154.613 288.457 154.3 290.21 153.68C291.97 153.067 293.263 152.23 294.09 151.17C294.91 150.117 295.323 148.917 295.33 147.57C295.33 145.923 294.733 144.593 293.54 143.58C292.353 142.573 290.817 141.77 288.93 141.17C287.05 140.577 284.96 140.027 282.66 139.52C280.36 138.993 278.063 138.383 275.77 137.69C273.463 136.997 271.37 136.093 269.49 134.98C267.603 133.873 266.067 132.39 264.88 130.53C263.693 128.67 263.1 126.293 263.1 123.4C263.093 120.46 263.88 117.76 265.46 115.3C267.033 112.853 269.433 110.893 272.66 109.42C275.893 107.94 279.987 107.2 284.94 107.2C288.193 107.207 291.42 107.623 294.62 108.45C297.827 109.277 300.617 110.463 302.99 112.01L299.82 119.84C297.387 118.393 294.88 117.32 292.3 116.62C289.72 115.92 287.243 115.57 284.87 115.57C282.083 115.57 279.823 115.907 278.09 116.58C276.357 117.253 275.093 118.13 274.3 119.21C273.493 120.297 273.09 121.537 273.09 122.93C273.097 124.583 273.677 125.913 274.83 126.92C275.997 127.927 277.523 128.713 279.41 129.28C281.29 129.853 283.393 130.41 285.72 130.95C288.047 131.497 290.357 132.103 292.65 132.77C294.943 133.443 297.037 134.323 298.93 135.41C300.817 136.497 302.337 137.967 303.49 139.82C304.657 141.68 305.24 144.03 305.24 146.87C305.24 149.763 304.453 152.437 302.88 154.89C301.307 157.343 298.893 159.307 295.64 160.78C292.38 162.247 288.273 162.98 283.32 162.98Z" fill="black"/>
<path d="M333.21 162.21V116.5H315.23V107.98H361.25V116.5H343.27V162.21H333.21Z" fill="black"/>
<path fill-rule="evenodd" clip-rule="evenodd" d="M366.2 162.21L390.61 107.99H400.52L425 162.21H414.47L409.08 149.66L405.68 141.76L395.49 118.03L385.34 141.76H380.15L377.44 149.66H381.95L376.59 162.21H366.2ZM409.07 149.66L405.68 141.76H385.33L381.95 149.66H409.07Z" fill="black"/>
<path d="M385.33 141.76H380.15L377.44 149.66H381.95L385.33 141.76Z" fill="black"/>
<path d="M439.64 162.21V107.98H447.93L481.94 149.73H477.84V107.98H487.83V162.21H479.54L445.53 120.46H449.63V162.21H439.64Z" fill="black"/>
<path fill-rule="evenodd" clip-rule="evenodd" d="M163.4 205.19V183.36H171.58C173.427 183.36 175.017 183.657 176.35 184.25C177.677 184.843 178.697 185.697 179.41 186.81C180.13 187.923 180.49 189.27 180.49 190.85C180.49 192.383 180.13 193.71 179.41 194.83C178.697 195.943 177.677 196.793 176.35 197.38C176.077 197.5 175.793 197.61 175.5 197.71L180.84 205.19H178.31L173.33 198.17C172.777 198.237 172.193 198.27 171.58 198.27H165.71V205.19H163.4ZM165.71 196.31H164.68L165.71 197.39V196.31ZM171.52 196.31C173.7 196.31 175.357 195.833 176.49 194.88C177.623 193.92 178.19 192.577 178.19 190.85C178.19 189.103 177.623 187.753 176.49 186.8C175.357 185.84 173.7 185.36 171.52 185.36H165.71V196.31H171.52ZM165.72 185.36V184.27L164.69 185.36H165.72Z" fill="black"/>
<path fill-rule="evenodd" clip-rule="evenodd" d="M196.99 203.2H210.12V205.19H194.69V183.36H209.65V185.36H196.99V193.12H196.74V195.09H196.99V203.2ZM208.28 195.08V193.12H196.99V195.08H208.28Z" fill="black"/>
<path fill-rule="evenodd" clip-rule="evenodd" d="M220.8 205.19L230.77 183.36H233.05L243.03 205.19H240.59L237.99 199.36H238.79L238.1 197.49H237.15L231.9 185.74L226.64 197.49H225.4L224.72 199.36H225.8L223.2 205.19H220.8ZM237.99 199.36L237.15 197.49H226.64L225.81 199.36H237.99Z" fill="black"/>
<path d="M255.38 205.19V183.36H257.69V203.19H269.92V205.19H255.38Z" fill="black"/>
<path fill-rule="evenodd" clip-rule="evenodd" d="M301.7 203.2H314.83V205.19H299.39V183.36H314.36V185.36H301.7V193.12H301.45V195.09H301.7V203.2ZM312.99 195.08V193.12H301.7V195.08H312.99Z" fill="black"/>
<path d="M335.01 205.38C333.39 205.38 331.837 205.113 330.35 204.58C328.857 204.053 327.707 203.373 326.9 202.54L327.81 200.76C328.577 201.513 329.61 202.143 330.91 202.65C332.203 203.163 333.57 203.42 335.01 203.42C336.383 203.42 337.5 203.247 338.36 202.9C339.227 202.56 339.86 202.1 340.26 201.52L340.87 199.58C340.877 198.733 340.633 198.047 340.14 197.52L338.22 196.29C337.433 195.99 336.56 195.727 335.6 195.5C334.647 195.267 333.69 195.02 332.73 194.76C331.777 194.5 330.897 194.15 330.09 193.71L328.16 191.98C327.673 191.267 327.43 190.327 327.43 189.16C327.43 188.08 327.713 187.087 328.28 186.18C328.853 185.273 329.733 184.547 330.92 184C332.113 183.447 333.633 183.173 335.48 183.18C336.707 183.18 337.923 183.35 339.13 183.69C340.337 184.03 341.373 184.5 342.24 185.1L341.47 186.94C340.53 186.32 339.537 185.863 338.49 185.57C337.437 185.283 336.423 185.14 335.45 185.14C334.137 185.14 333.053 185.317 332.2 185.67C331.347 186.023 330.72 186.497 330.32 187.09L329.71 189.1C329.71 189.953 329.953 190.64 330.44 191.16L332.37 192.38C333.17 192.667 334.05 192.927 335.01 193.16C335.97 193.387 336.92 193.633 337.86 193.9C338.807 194.173 339.68 194.523 340.48 194.95C341.287 195.37 341.933 195.937 342.42 196.65C342.907 197.357 343.15 198.283 343.15 199.43C343.15 200.483 342.86 201.463 342.28 202.37C341.693 203.27 340.803 204 339.61 204.56C338.417 205.107 336.883 205.38 335.01 205.38Z" fill="black"/>
<path d="M360.83 205.19V185.36H353.16V183.36H370.81V185.36H363.14V205.19H360.83Z" fill="black"/>
<path fill-rule="evenodd" clip-rule="evenodd" d="M378.65 205.19L388.63 183.36H390.91L400.89 205.19H398.45L395.84 199.36H396.64L395.95 197.49H395L389.75 185.74L384.49 197.49H383.26L382.58 199.36H383.66L381.05 205.19H378.65ZM395.84 199.36L395 197.49H384.5L383.66 199.36H395.84Z" fill="black"/>
<path d="M416.38 205.19V185.36H408.71V183.36H426.37V185.36H418.69V205.19H416.38Z" fill="black"/>
<path fill-rule="evenodd" clip-rule="evenodd" d="M441.08 203.2H454.21V205.19H438.78V183.36H453.75V185.36H441.08V193.12H440.83V195.09H441.08V203.2ZM452.38 195.08V193.12H441.08V195.08H452.38Z" fill="black"/>
<path fill-rule="evenodd" clip-rule="evenodd" d="M99.7 55.09V153.6L24.49 205.39L24.83 54.73C24.79 53.7 25.16 52.72 25.86 51.96C26.55 51.19 27.51 50.75 28.55 50.71C29.56 50.7 30.55 51.02 31.32 51.73C32.09 52.44 32.54 53.39 32.58 54.43L31.69 190.63L48.21 179.72L49.99 65.45L91.95 91.35V59.81L7.87 12.09L8.03999 201.34C8.13999 203.46 6.48 205.28 4.34 205.38L4.16 205.39C2.09 205.39 0.389993 203.75 0.289993 201.68L0.169998 0.559998L99.7 55.09ZM58.2 78.4L55.78 174.37L91.95 149.57V100.07L58.2 78.4Z" fill="#0A1E77"/>
</g>
<defs>
<clipPath id="clip0_5_3">
<rect width="488" height="206" fill="white"/>
</clipPath>
</defs>
</svg>
